<svg xmlns="http://www.w3.org/2000/svg" version="1.1" xmlns:xlink="http://www.w3.org/1999/xlink" viewBox="0 0 200 200"><rect width="200" height="200" fill="url('#gradient')"></rect><defs><linearGradient id="gradient" gradientTransform="rotate(45 0.5 0.5)"><stop offset="0%" stop-color="#000000"></stop><stop offset="100%" stop-color="#ff0a73"></stop></linearGradient></defs><g><g fill="#000000" transform="matrix(2.104349811622331,0,0,2.104349811622331,7.721721144936005,112.38288690347298)" stroke="#bfae50" stroke-width="0.2"><path d="M1.08-4.13L6.40-5.98L1.08-7.78L1.08-10.77L9.67-7.26L9.67-4.66L1.08-1.14L1.08-4.13ZM24.10 0L21.59-5.02L19.74-5.02L19.74 0L16.31 0L16.31-14.22L21.90-14.22Q24.43-14.22 25.86-13.10Q27.29-11.97 27.29-9.92L27.29-9.92Q27.29-8.44 26.68-7.46Q26.08-6.48 24.80-5.88L24.80-5.88L27.77-0.15L27.77 0L24.10 0ZM19.74-11.57L19.74-7.67L21.90-7.67Q22.88-7.67 23.37-8.18Q23.87-8.69 23.87-9.61Q23.87-10.53 23.37-11.05Q22.87-11.57 21.90-11.57L21.90-11.57L19.74-11.57ZM31.46-14.22L34.09-8.05L36.71-14.22L40.41-14.22L35.83-5.11L35.83 0L32.35 0L32.35-5.11L27.78-14.22L31.46-14.22ZM52.02-12.46L45.29-2.64L52.09-2.64L52.09 0L41.02 0L41.02-1.81L47.79-11.57L40.98-11.57L40.98-14.22L52.02-14.22L52.02-12.46ZM62.46-8.57L62.46-6.03L57.07-6.03L57.07-2.64L63.44-2.64L63.44 0L53.64 0L53.64-14.22L63.46-14.22L63.46-11.57L57.07-11.57L57.07-8.57L62.46-8.57ZM76.71-14.22L76.71 0L73.30 0L68.26-8.85L68.26 0L64.83 0L64.83-14.22L68.26-14.22L73.29-5.37L73.29-14.22L76.71-14.22ZM86.62 0L86.62 2.45L77.80 2.45L77.80 0L86.62 0Z"></path></g></g></svg>